<svg width="32" height="36" viewBox="0 0 32 36" fill="none" xmlns="http://www.w3.org/2000/svg">
<path d="M27.0314 7.19787C24.4203 5.08188 21.1985 3.91077 17.9409 3.91077C14.3208 3.91077 10.8707 5.25267 8.23955 7.70802C5.60838 10.1634 4.02655 13.4904 3.81848 17.0792L3.79834 17.4562H5.45624L5.49428 17.1169C5.95071 10.6558 11.4211 5.60977 17.9386 5.60977C20.892 5.60977 23.6372 6.57239 25.8679 8.42444L26.0022 8.53756L27.1835 7.36644L27.0314 7.19787Z" fill="white"/>
<path d="M25.3732 23.2763C23.6393 25.6186 20.8559 27.0359 17.9406 27.0359C12.8909 27.0359 8.77406 22.9547 8.77406 17.9487C8.77406 12.9803 12.8909 8.91688 17.9406 8.91688C20.8761 8.91688 23.6572 10.3142 25.3732 12.6764L25.5075 12.8472L26.709 11.6561L26.6127 11.523C24.5543 8.83924 21.3146 7.2334 17.9406 7.2334C11.9556 7.2334 7.07812 12.0332 7.07812 17.9265C7.07812 23.8597 11.9579 28.695 17.9406 28.695C21.3146 28.695 24.5543 27.0891 26.6127 24.4053L26.709 24.2722L25.5075 23.0812L25.3732 23.2763Z" fill="white"/>
<path d="M28.9552 9.18305C28.689 8.86143 28.4205 8.52208 28.0983 8.20046L27.9641 8.06738L26.7827 9.2385L26.917 9.37158C27.2414 9.69319 27.5076 10.0148 27.756 10.3342L27.8902 10.505L29.0716 9.33387L28.9552 9.18305Z" fill="white"/>
<path d="M25.9258 27.4152L25.7915 27.5283C23.543 29.3604 20.8178 30.343 17.8622 30.343C11.3447 30.343 5.87433 25.2793 5.4179 18.8359L5.39777 18.4211H3.71973L3.73986 18.8559C3.96808 22.4446 5.53201 25.7717 8.16094 28.227C10.7921 30.6646 14.2399 32.0243 17.8622 32.0243C21.1781 32.0243 24.4178 30.8531 26.9527 28.7372L27.1049 28.6041L25.9258 27.4152Z" fill="white"/>
<path d="M27.8702 25.4301L27.736 25.6008C27.4876 25.9225 27.2214 26.2441 26.8969 26.5635L26.7627 26.6965L27.944 27.8677L28.0783 27.7346C28.4206 27.3952 28.6891 27.0736 28.9352 26.752L29.0493 26.6189L27.8702 25.4301Z" fill="white"/>
<path d="M29.9666 27.8122C27.0513 31.4009 22.6682 33.4615 17.9407 33.4615C9.30658 33.4615 2.29461 26.508 2.29461 17.9509C2.29461 9.39375 9.30658 2.43804 17.9407 2.43804C22.6101 2.43804 26.9931 4.49636 29.9666 8.08734L30.1008 8.25812L31.2822 7.08701L31.1681 6.95393C27.8881 2.98589 23.0464 0.736816 17.9407 0.736816C8.37135 0.736816 0.596436 8.44444 0.596436 17.9309C0.596436 27.4174 8.37135 35.125 17.9407 35.125C23.0665 35.125 27.8903 32.8759 31.186 28.9656L31.3001 28.8325L30.1187 27.6614L29.9666 27.8122Z" fill="white"/>
</svg>
