<svg width="252" height="311" viewBox="0 0 252 311" fill="none" xmlns="http://www.w3.org/2000/svg">
<g clip-path="url(#clip0)">
<path d="M67.9455 82.6016C67.9103 83.1963 67.7309 83.7747 67.4217 84.2904C67.1125 84.8061 66.6821 85.2446 66.1651 85.5706L17.6487 112.565C16.6768 113.113 15.877 112.665 15.877 111.579V99.2463C15.9105 98.6522 16.0883 98.074 16.396 97.5583C16.7038 97.0426 17.1329 96.6038 17.6487 96.2773L66.1393 69.2825C67.0854 68.7352 67.9455 69.183 67.9455 70.2694V82.6016Z" fill="#1F263A"/>
<path d="M29.1135 98.1682C29.0085 100.045 28.446 101.872 27.4717 103.5C26.4973 105.129 25.1387 106.512 23.5059 107.54C20.401 109.265 17.8896 107.863 17.8896 104.413C17.995 102.535 18.5585 100.707 19.5344 99.0791C20.5103 97.4506 21.871 96.0673 23.5059 95.0416C26.6021 93.3166 29.1135 94.7181 29.1135 98.1682Z" fill="#FFD931"/>
<path d="M25.6645 98.3175C25.6248 99.0414 25.4086 99.7461 25.0335 100.374C24.6584 101.003 24.135 101.537 23.5058 101.933C22.3103 102.597 21.3384 102.058 21.3384 100.731C21.3791 100.006 21.5966 99.3011 21.9732 98.6728C22.3498 98.0444 22.8749 97.5107 23.5058 97.115C24.7012 96.4515 25.6645 97.0321 25.6645 98.3175Z" fill="white"/>
<path d="M25.1741 101.079L23.5142 103.857L21.8457 102.929C20.9147 103.889 20.1872 105.016 19.7041 106.246C20.5642 107.075 21.9575 107.075 23.5142 106.246C25.183 105.225 26.5047 103.754 27.3157 102.016C27.0879 101.68 26.7654 101.413 26.3862 101.248C26.007 101.082 25.5865 101.023 25.1741 101.079Z" fill="white"/>
<path d="M64.8145 78.9276L32.7168 96.7997V95.423L64.8145 77.5592V78.9276Z" fill="#FFD931"/>
<path d="M53.3412 88.5893L32.7168 100.076V98.6989L53.3412 87.2126V88.5893Z" fill="#FFD931"/>
<path d="M53.3412 81.142L32.7168 92.6282V91.2515L53.3412 79.7736V81.142Z" fill="white"/>
<path d="M173.157 285.33C172.919 285.329 172.689 285.241 172.51 285.082C172.331 284.923 172.215 284.704 172.183 284.465L160.848 197.665C160.822 197.531 160.823 197.393 160.852 197.26C160.88 197.126 160.936 197 161.015 196.889C161.093 196.779 161.194 196.685 161.31 196.615C161.425 196.545 161.554 196.499 161.688 196.482C161.822 196.464 161.958 196.474 162.088 196.511C162.218 196.549 162.339 196.613 162.443 196.699C162.548 196.786 162.634 196.893 162.695 197.014C162.757 197.136 162.794 197.269 162.803 197.405L174.138 284.204C174.172 284.467 174.101 284.731 173.942 284.941C173.783 285.151 173.548 285.288 173.289 285.323L173.157 285.33Z" fill="#C8C5DB"/>
<path d="M191.525 280.394C191.268 280.395 191.018 280.304 190.824 280.138C190.631 279.971 190.506 279.74 190.475 279.489L178.253 188.762C178.235 188.627 178.244 188.489 178.28 188.357C178.316 188.226 178.378 188.102 178.463 187.994C178.547 187.886 178.653 187.795 178.773 187.727C178.894 187.658 179.027 187.614 179.165 187.596C179.303 187.578 179.443 187.587 179.577 187.623C179.712 187.658 179.838 187.719 179.948 187.802C180.059 187.885 180.151 187.988 180.221 188.106C180.291 188.224 180.336 188.355 180.354 188.49L192.576 279.217C192.595 279.353 192.586 279.491 192.55 279.623C192.514 279.756 192.452 279.88 192.367 279.989C192.282 280.097 192.176 280.189 192.054 280.257C191.933 280.325 191.799 280.369 191.661 280.386L191.525 280.394Z" fill="#C8C5DB"/>
<path d="M131.057 276.508H130.877C130.558 276.461 130.271 276.294 130.079 276.044C129.888 275.794 129.806 275.481 129.853 275.173L143.391 188.176C143.414 188.024 143.469 187.878 143.551 187.746C143.633 187.615 143.742 187.5 143.87 187.409C143.998 187.317 144.144 187.251 144.298 187.214C144.453 187.177 144.614 187.17 144.771 187.193C144.929 187.216 145.08 187.268 145.217 187.348C145.353 187.427 145.472 187.531 145.567 187.655C145.661 187.779 145.73 187.919 145.768 188.068C145.807 188.217 145.814 188.372 145.79 188.524L132.261 275.513C132.216 275.79 132.07 276.042 131.85 276.224C131.629 276.407 131.348 276.507 131.057 276.508Z" fill="#D7D6DF"/>
<path d="M147.872 267.145H147.691C147.373 267.096 147.088 266.928 146.897 266.679C146.705 266.429 146.623 266.117 146.668 265.81L160.205 178.829C160.228 178.677 160.282 178.53 160.364 178.398C160.446 178.265 160.554 178.15 160.682 178.058C160.811 177.966 160.956 177.899 161.111 177.861C161.266 177.824 161.427 177.816 161.585 177.838C161.744 177.86 161.896 177.913 162.033 177.992C162.17 178.07 162.29 178.175 162.385 178.298C162.481 178.422 162.55 178.562 162.589 178.712C162.628 178.861 162.636 179.017 162.613 179.169L149.076 266.15C149.031 266.427 148.885 266.679 148.664 266.861C148.443 267.044 148.162 267.144 147.872 267.145Z" fill="#D7D6DF"/>
<path d="M182.317 186.882L159.302 199.695L140.587 189.27L163.602 176.466L182.317 186.882Z" fill="#FCFCFC"/>
<path d="M159.302 199.695V202.482L140.587 192.057V189.271L159.302 199.695Z" fill="url(#paint0_linear)"/>
<path d="M159.302 199.695V202.482L182.317 189.669V186.882L159.302 199.695Z" fill="url(#paint1_linear)"/>
<path d="M164.505 216.597C164.238 216.598 163.979 216.513 163.766 216.357C163.554 216.201 163.402 215.981 163.332 215.732C163.262 215.484 163.28 215.22 163.382 214.982C163.483 214.744 163.664 214.545 163.895 214.416L180.718 205.053C180.997 204.898 181.329 204.856 181.64 204.937C181.952 205.018 182.217 205.215 182.378 205.484C182.538 205.753 182.582 206.073 182.498 206.374C182.414 206.674 182.21 206.93 181.93 207.085L165.133 216.456C164.939 216.553 164.724 216.601 164.505 216.597Z" fill="#C8C5DB"/>
<path d="M166.518 231.309C166.305 231.31 166.096 231.257 165.912 231.155C165.728 231.053 165.575 230.906 165.468 230.729C165.388 230.595 165.336 230.447 165.315 230.294C165.294 230.14 165.305 229.984 165.346 229.835C165.388 229.686 165.46 229.546 165.557 229.423C165.655 229.3 165.777 229.197 165.916 229.12L182.73 219.773C183.009 219.618 183.341 219.577 183.653 219.657C183.964 219.738 184.229 219.935 184.39 220.205C184.551 220.474 184.594 220.794 184.51 221.094C184.426 221.394 184.222 221.65 183.943 221.805L167.128 231.168C166.941 231.267 166.731 231.315 166.518 231.309Z" fill="#C8C5DB"/>
<path d="M168.573 246.022C168.304 246.026 168.04 245.943 167.825 245.786C167.609 245.629 167.454 245.407 167.384 245.156C167.314 244.905 167.333 244.638 167.438 244.398C167.543 244.159 167.727 243.959 167.963 243.832L184.777 234.469C185.057 234.314 185.388 234.272 185.7 234.353C186.011 234.434 186.276 234.631 186.437 234.9C186.598 235.17 186.641 235.49 186.557 235.79C186.473 236.09 186.269 236.346 185.99 236.501L169.176 245.864C168.993 245.968 168.785 246.022 168.573 246.022Z" fill="#C8C5DB"/>
<path d="M170.552 260.734C170.337 260.733 170.127 260.679 169.941 260.575C169.756 260.472 169.602 260.324 169.494 260.145C169.414 260.012 169.362 259.865 169.341 259.712C169.32 259.559 169.331 259.404 169.372 259.255C169.414 259.107 169.485 258.967 169.583 258.845C169.681 258.723 169.802 258.621 169.941 258.545L186.755 249.181C187.033 249.053 187.35 249.029 187.644 249.117C187.939 249.204 188.188 249.395 188.342 249.652C188.496 249.909 188.545 250.212 188.477 250.502C188.409 250.791 188.23 251.045 187.977 251.213L171.154 260.577C170.971 260.68 170.763 260.735 170.552 260.734Z" fill="#C8C5DB"/>
<path d="M172.564 275.447C172.35 275.445 172.14 275.39 171.955 275.287C171.769 275.183 171.615 275.036 171.506 274.858C171.426 274.724 171.374 274.577 171.354 274.424C171.333 274.272 171.343 274.117 171.385 273.968C171.427 273.819 171.498 273.68 171.596 273.558C171.693 273.436 171.815 273.334 171.954 273.257L188.768 263.894C188.907 263.802 189.064 263.739 189.229 263.708C189.394 263.678 189.564 263.68 189.728 263.716C189.892 263.752 190.047 263.82 190.182 263.916C190.318 264.012 190.431 264.134 190.516 264.274C190.6 264.415 190.653 264.57 190.672 264.731C190.691 264.893 190.676 265.056 190.626 265.211C190.577 265.366 190.495 265.509 190.385 265.632C190.276 265.756 190.141 265.855 189.989 265.926L173.166 275.289C172.982 275.389 172.775 275.443 172.564 275.447Z" fill="#C8C5DB"/>
<path d="M179.161 243.758L160.996 217.99C153.806 224.973 142.247 225.778 129.096 218.737C106.778 206.786 88.3462 176.764 87.9248 151.677C87.7636 147.003 88.4415 142.337 89.9288 137.885L68.0056 118.056L44.9214 130.91L65.3652 186.161C70.2934 223.066 97.5748 227.428 129.535 244.537C142.324 251.388 154.15 253.502 163.938 251.512L163.189 253.668L172.478 248.493C172.908 248.261 173.338 248.029 173.751 247.78C175.701 246.634 177.515 245.285 179.161 243.758Z" fill="#1F263A"/>
<path d="M174.671 237.388L160.833 251.993C161.891 251.877 155.036 256.811 156.051 256.612L150.237 260.9L172.495 248.46C172.925 248.228 173.355 247.996 173.768 247.747C175.694 246.602 177.485 245.259 179.109 243.741L174.671 237.388Z" fill="#1F263A"/>
<path d="M106.02 231.591C83.7017 219.641 65.2618 189.619 64.8404 164.531C64.6834 159.857 65.3613 155.192 66.8443 150.74L44.9212 130.91C42.6719 137.805 41.6455 145.017 41.8851 152.241C42.556 191.576 71.4629 238.657 106.45 257.392C126.825 268.306 144.775 267.195 156.076 256.612L137.92 230.845C130.73 237.828 119.162 238.632 106.02 231.591Z" fill="#FFD931"/>
<path d="M137.92 230.845L160.996 217.99L179.161 243.758L156.076 256.612L137.92 230.845Z" fill="#2992FA"/>
<path d="M66.8445 150.74L89.8772 138.009L68.0056 118.056L44.9214 130.91L66.8445 150.74Z" fill="#2992FA"/>
<path d="M127.118 102.091C109.917 92.8936 94.4871 92.2385 83.2546 98.616L81.4141 99.6527L74.5335 106.03C71.6387 109.644 69.4182 113.716 67.9712 118.064L100.465 110.144C100.465 110.144 109.925 118.437 127.522 127.908C134.833 131.823 141.731 137.669 147.708 144.661L157.891 127.402C148.792 116.87 138.239 108.046 127.118 102.091Z" fill="#1F263A"/>
<path d="M68.0059 118.056L83.9257 132.461L87.366 139.411L89.8946 138.009C93.0855 128.837 100.344 125.636 100.344 125.636C100.344 125.636 76.0819 94.6767 68.0059 118.056Z" fill="#1F263A"/>
<path d="M65.3652 119.532L87.3486 139.436C92.5606 124.674 107.285 119.947 124.925 129.393C132.236 133.307 139.125 139.162 145.102 146.145L155.285 128.887C146.108 118.362 135.607 109.547 124.486 103.592C96.7061 88.6889 73.4499 96.1446 65.3652 119.532Z" fill="#2992FA"/>
<path d="M157.926 127.394L155.294 128.862L145.102 146.12L147.742 144.652L157.926 127.394Z" fill="url(#paint2_linear)"/>
<path d="M166.105 184.85C166.165 186.26 165.881 186.791 165.598 186.965C165.314 187.139 165.314 187.197 165.262 187.429C165.096 188.019 164.878 188.593 164.608 189.146C163.594 191.17 161.744 191.228 162.14 189.561C162.536 187.894 162.768 187.902 162.854 186.691C162.94 185.48 163.069 184.352 164.17 183.847C164.357 183.724 164.576 183.653 164.802 183.641C165.028 183.63 165.254 183.679 165.453 183.782C165.653 183.886 165.819 184.04 165.934 184.228C166.049 184.416 166.108 184.632 166.105 184.85Z" fill="#1F263A"/>
<path d="M146.367 107.465C146.367 109.455 142.694 111.977 140.346 113.668C138.385 115.112 125.785 119.532 125.785 119.532L125.338 116.264L138.531 109.373C138.531 109.373 146.091 99.7854 147.992 98.0107C151.054 95.2822 146.367 105.483 146.367 107.465Z" fill="#1F263A"/>
<path d="M154.434 183.681C152.877 184.941 152.55 184.817 152.352 185.688C152.155 186.558 154.64 186.036 155.793 185.613C156.348 185.407 156.844 185.074 157.238 184.643C157.728 184.029 158.218 184.336 159.138 184.029C160.059 183.722 160.179 182.86 159.775 181.541C159.371 180.222 156.696 181.541 156.111 181.947C155.511 182.487 154.951 183.066 154.434 183.681Z" fill="#1F263A"/>
<path d="M156.782 181.624C156.515 182.014 156.782 182.188 157.126 182.254C157.488 182.262 157.848 182.192 158.178 182.049C158.509 181.905 158.801 181.692 159.035 181.425C159.285 180.878 159.689 164.2 159.035 157.872C158.382 151.544 159.267 132.469 159.508 127.792C159.749 123.115 151.243 122.053 151.071 130.28C150.899 138.507 152.791 156.819 153.935 160.783C155.079 164.747 156.808 177.817 156.988 179.368C157.144 180.124 157.072 180.906 156.782 181.624Z" fill="url(#paint3_linear)"/>
<path d="M163.619 184.46C163.568 184.958 163.525 185.53 164.325 185.671C164.534 185.673 164.741 185.628 164.929 185.539C165.117 185.449 165.28 185.319 165.406 185.157C165.531 184.995 165.616 184.808 165.652 184.609C165.688 184.41 165.676 184.206 165.615 184.012C165.176 182.586 166.827 167.069 166.157 160.741C165.486 154.414 164.17 135.339 164.436 130.661C164.703 125.984 156.016 124.922 155.836 133.149C155.655 141.376 159.826 160.418 160.996 164.357C162.166 168.297 163.422 180.322 163.576 181.873C163.662 182.733 163.676 183.598 163.619 184.46Z" fill="url(#paint4_linear)"/>
<path d="M146.409 123.861C145.549 145.755 148.259 149.189 149.454 155.301C149.944 157.789 157.883 161.72 162.08 161.297C166.277 160.874 166.974 159.456 166.81 157.15C166.432 151.635 166.32 149.338 165.563 125.329L146.409 123.861Z" fill="#1F263A"/>
<path d="M162.914 128.862C160.876 132.37 159.534 137.213 152.335 137.777C145.137 138.341 144.741 134.808 144.595 124.848C144.449 114.888 145.128 98.8233 149.643 96.4183C153.72 94.2537 162.846 98.2179 166.045 105.052C168.832 110.998 167.129 126.415 166.965 131.59C166.802 136.765 162.914 128.862 162.914 128.862Z" fill="#FFD931"/>
<path d="M135.891 107.465L126.026 112.955L123.489 125.661C124.796 126.399 126.138 127.145 127.548 127.9C134.859 131.814 141.757 137.661 147.734 144.652L157.917 127.394C151.464 119.893 144.065 113.198 135.891 107.465Z" fill="#1F263A"/>
<path d="M157.926 127.394L148.069 132.884L137.886 150.143L147.743 144.652L157.926 127.394Z" fill="#2992FA"/>
<path d="M126.035 112.955L121.502 135.629C127.654 139.673 133.159 144.562 137.843 150.143L148.026 132.884C141.581 125.387 134.194 118.693 126.035 112.955Z" fill="#FFD931"/>
<path d="M162.106 101.087C161.852 100.78 161.564 100.502 161.246 100.258L161.048 100.092C160.454 99.578 158.691 97.7949 157.771 93.9883C157.771 93.9883 154.485 93.5736 154.055 95.0001C153.885 95.3778 153.638 95.719 153.33 96.0038C153.021 96.2886 152.657 96.5112 152.258 96.6588C151.775 96.7357 151.313 96.9048 150.899 97.1564C149.884 97.7866 149.402 98.9228 149.635 100.598C150.142 104.239 157.607 107.722 160.471 106.246C163.336 104.77 163.043 102.323 162.106 101.087Z" fill="url(#paint5_linear)"/>
<path d="M160.489 106.238C163.353 104.77 163.069 102.323 162.106 101.087C161.852 100.78 161.564 100.502 161.245 100.258L161.048 100.092C159.893 99.0176 159.01 97.7009 158.467 96.2441C158.467 96.2441 157.539 98.3341 156.128 98.6077C154.872 98.8565 152.447 98.5414 152.198 96.6339C151.727 96.7131 151.278 96.8793 150.873 97.1232C149.858 97.7535 149.377 98.8897 149.609 100.565C150.159 104.231 157.625 107.714 160.489 106.238Z" fill="#1F263A"/>
<path d="M149.79 90.7042C149.102 96.3437 151.011 97.7038 152.809 98.3424C154.606 98.9809 158.683 96.6837 157.866 90.7042C157.049 84.7247 150.349 86.1512 149.79 90.7042Z" fill="#FCFCFC"/>
<path d="M149.652 92.2385C149.256 92.2385 148.482 91.8819 148.731 91.7243C148.981 91.5667 148.731 91.5916 148.895 91.1604C149.058 90.7291 147.51 90.8535 147.803 90.6959C148.095 90.5384 147.639 90.5384 147.553 89.8666C147.467 89.1948 147.269 88.7138 147.682 88.7719C148.095 88.8299 148.276 88.0172 148.344 87.8347C148.413 87.6523 147.536 87.5528 147.699 87.0054C147.863 86.458 148.276 86.2756 148.465 85.8112C148.654 85.3467 148.895 84.8408 148.895 84.8408C149.106 84.7327 149.292 84.5831 149.44 84.4017C149.588 84.2204 149.695 84.0112 149.755 83.7876C150.09 82.9085 150.916 81.8387 151.329 81.8387C151.742 81.8387 152.404 82.668 153.35 82.5933C154.296 82.5187 154.287 81.0508 154.881 81.4406C155.474 81.8304 155.182 82.2699 156.145 82.1538C157.108 82.0377 157.59 81.0508 157.865 81.3742C158.141 81.6977 158.321 82.3611 158.725 82.2036C159.13 82.046 159.284 81.905 159.431 82.0792C159.577 82.2533 159.181 82.5021 159.431 82.7012C159.68 82.9002 159.431 82.9334 159.757 83.2153C160.084 83.4973 159.757 82.9085 160.377 83.0744C161.134 83.2873 161.843 83.6362 162.467 84.1027C162.656 84.3681 163.327 84.4759 163.103 85.0896C162.88 85.7033 163.215 87.4532 163.877 87.5776C166.337 88.1416 164.264 89.17 163.877 89.4105C163.49 89.651 163.877 91.6165 163.877 91.9731C163.877 92.3297 164.084 93.0181 163.619 92.8605C163.155 92.7029 163.043 93.441 163.043 93.441C163.043 93.441 162.957 94.0547 162.957 94.1625C162.957 94.2704 163.086 94.063 162.424 94.2206C161.761 94.3782 161.142 94.063 161.228 94.6601C161.314 95.2573 162.088 95.3734 161.718 95.7715C161.52 95.9432 161.276 96.0588 161.013 96.1056C160.751 96.1524 160.48 96.1286 160.231 96.0368C161.005 96.4349 159.886 96.8164 158.579 95.8958C158.218 95.6388 158.467 95.6388 158.218 95.6388C157.969 95.6388 157.444 94.7265 157.444 94.7265L157.495 92.6366L154.408 88.7221H151.991L150.271 89.6924C150.054 90.0234 149.884 90.3803 149.763 90.754C149.652 92.5122 149.652 92.2385 149.652 92.2385Z" fill="black"/>
<path d="M157.151 89.991C155.019 86.6239 152.499 85.6785 150.271 89.2114L149.824 90.7042C151.458 88.3904 153.789 89.2944 155.664 92.1556C155.755 92.2903 155.885 92.3965 156.037 92.4613C156.19 92.5261 156.359 92.5466 156.524 92.5205C156.62 92.4876 156.723 92.4749 156.825 92.4831C156.926 92.4913 157.025 92.5202 157.115 92.568C157.204 92.6159 157.282 92.6814 157.343 92.7605C157.404 92.8395 157.448 92.9301 157.47 93.0264C157.505 93.358 157.44 93.6924 157.28 93.9884C157.191 94.1655 157.145 94.3597 157.145 94.5565C157.145 94.7533 157.191 94.9475 157.28 95.1246L157.367 95.2821C157.367 95.2821 158.7 92.4375 157.151 89.991Z" fill="#FFD931"/>
<path d="M148.07 132.511C147.209 133.347 146.105 133.911 144.904 134.128C143.356 134.468 142.677 135.704 143.313 136.757C143.95 137.81 147.459 137.097 148.207 136.616C149.009 135.99 149.76 135.305 150.452 134.568L151.174 131.98L148.594 132.03L148.07 132.511Z" fill="#FCFCFC"/>
<path d="M165.598 107.498C166.767 109.986 166.32 111.421 166.32 113.403C166.32 115.385 164.178 124.135 162.708 126.05C161.237 127.966 150.452 134.568 150.452 134.568C150.452 134.568 151.08 133.631 149.747 132.586C148.689 131.756 148.026 132.511 148.026 132.511L159.156 122.227C159.156 122.227 161.254 109.961 162.028 107.498C162.802 105.035 165.288 106.826 165.598 107.498Z" fill="#1F263A"/>
<path d="M125.26 116.845C122.104 118.893 121.614 121.547 123.798 124.159C125.983 126.772 126.774 124.425 126.748 122.932C126.722 121.439 124.727 119.532 124.727 119.532L125.26 116.845Z" fill="url(#paint6_linear)"/>
<path d="M148.199 132.469C147.502 132.677 146.556 132.171 145.928 132.469C145.3 132.768 146.281 133.382 147.123 133.423C147.966 133.465 148.199 132.469 148.199 132.469Z" fill="#FCFCFC"/>
<path d="M125.045 117.657C125.725 118.943 125.535 119.54 125.045 119.242C124.87 119.131 124.722 118.985 124.609 118.815C124.497 118.645 124.422 118.454 124.392 118.255C124.623 118.07 124.842 117.871 125.045 117.657Z" fill="url(#paint7_linear)"/>
<path d="M169.253 236.435L171.128 237.612V235.365L170.13 234.336L166.122 231.848L168.1 234.851L169.253 236.435Z" fill="white"/>
<path d="M126.8 222.485C140.019 218.604 147.657 216.157 151.054 216.099C154.451 216.041 170.13 234.345 170.13 234.345C170.13 234.345 168.754 235.373 169.27 236.443C169.27 236.443 157.84 227.32 150.056 224.102C150.056 224.102 140.251 229.452 137.465 229.452C134.678 229.452 118.947 224.791 126.8 222.485Z" fill="#1F263A"/>
<path d="M81.3626 223.655C83.4268 218.944 79.6941 216.522 80.0037 213.893C80.2078 212.266 80.666 210.678 81.3626 209.183L85.0007 213.852C85.0612 214.682 85.0323 215.516 84.9147 216.34C84.6942 218.643 84.3439 220.932 83.8655 223.198C83.2462 226.002 80.494 225.645 81.3626 223.655Z" fill="#2992FA"/>
<path d="M158.769 248.178L159.706 249.281L161.074 248.775L161.693 248.253L161.022 246.685L158.941 246.752L158.769 248.178Z" fill="white"/>
<path d="M108.067 208.519L111.181 207.043L100.808 207.781L100.464 205.243C100.464 205.243 113.658 201.793 116.9 202.482C118.388 202.797 117.76 204.82 116.9 206.703C115.792 208.566 114.586 210.373 113.288 212.119L108.067 208.519Z" fill="#FCFCFC"/>
<path d="M119.549 231.848C126.946 236.211 139.107 230.19 142.659 228.191L158.734 248.178C158.959 247.774 159.281 247.429 159.673 247.17C160.065 246.912 160.516 246.748 160.988 246.694C160.988 246.694 148.869 226.168 146.951 223.24C145.033 220.312 143.778 220.171 140.071 220.752C136.364 221.333 129.036 222.46 129.036 222.46C127.463 222.579 125.938 223.035 124.572 223.795C123.205 224.556 122.033 225.602 121.141 226.856C118.277 231.119 119.549 231.848 119.549 231.848Z" fill="#1F263A"/>
<path d="M93.2917 215.627L90.1266 216.887C91.2128 215.25 92.5763 213.801 94.1603 212.6C95.4454 211.599 96.6715 210.531 97.8328 209.398L95.7256 207.806C95.7256 207.806 87.3916 213.819 85.2414 216.697C83.0912 219.574 82.5838 221.673 86.5229 221.415C89.2933 221.276 92.0694 221.276 94.8398 221.415L99.6906 218.927L97.377 215.096H94.2979L93.2917 215.627Z" fill="#FCFCFC"/>
<path d="M130.051 219.914C129.457 219.326 125.295 219.914 120.59 216.929C117.279 214.814 115.335 213.205 113.391 212.185L113.245 212.119C113.092 211.04 112.505 210.063 111.611 209.398C109.349 207.599 107.878 208.569 107.878 208.569L103.071 210.435L102.787 210.493C101.272 210.805 99.8565 211.462 98.6584 212.409C96.9682 213.635 95.1561 214.696 93.2485 215.577C93.4636 215.511 94.4526 215.312 95.4761 217.103C96.6372 219.135 95.6825 220.42 94.7967 221.391C94.7967 221.391 98.9336 221.391 101.049 223.273C105.974 227.416 111.563 230.763 117.597 233.184C117.597 233.184 119.412 234.013 121.433 229.419C122.25 227.47 123.514 225.725 125.13 224.315C126.746 222.904 128.673 221.865 130.765 221.274C130.65 220.77 130.405 220.302 130.051 219.914Z" fill="#FFD931"/>
<path d="M97.936 212.948C99.9056 212.193 101.953 212.732 103.742 212.044C103.963 211.992 104.167 211.886 104.333 211.736C104.5 211.586 104.622 211.397 104.69 211.187C104.758 210.977 104.768 210.754 104.719 210.539C104.67 210.325 104.565 210.126 104.412 209.962C104.412 209.962 102.116 210.7 101.832 209.556C101.548 208.411 98.3919 210.568 98.3919 210.568C98.4838 211.086 98.4838 211.616 98.3919 212.135C98.3067 212.436 98.1507 212.714 97.936 212.948Z" fill="#EFEFEF"/>
<path d="M98.452 210.568C101.032 209.896 102.477 209.357 102.348 208.677C102.219 207.997 101.264 203.004 98.9766 202.167C96.6888 201.329 94.8913 206.172 95.7685 208.055C96.3056 209.187 97.2631 210.083 98.452 210.568Z" fill="#FCFCFC"/>
<path d="M98.5209 211.082C98.5983 215.386 94.9258 208.959 93.2487 209.307L89.3354 211.837C89.3354 211.837 86.136 212.558 85.0351 213.852L81.397 209.183C81.9904 206.827 84.2438 210.244 85.8005 205.335C87.254 200.732 90.1611 204.223 91.6146 202.075C93.4981 199.28 94.4958 203.162 96.2504 202.183C98.0049 201.205 100.8 200.475 101.72 203.842C101.782 204.579 101.782 205.319 101.72 206.056C101.72 206.056 100.499 203.087 99.4154 203.137C98.3317 203.187 97.033 206.089 97.291 207.449C97.291 207.449 96.2847 207.358 96.6288 208.179C96.7041 208.4 96.8625 208.585 97.0727 208.699C97.2828 208.813 97.5295 208.846 97.7641 208.793C98.1429 209.512 98.3985 210.285 98.5209 211.082Z" fill="#2992FA"/>
<path d="M171.541 234.469C171.996 234.312 172.1 235.066 172.1 235.066C172.1 235.066 172.96 234.585 175.6 233.283C177.122 232.545 176.142 235.315 173.261 236.982C171.988 237.72 171.902 238.724 171.257 238.541C170.612 238.359 169.915 237.131 169.915 237.131C169.915 237.131 171.068 236.352 170.775 235.738C170.483 235.249 171.154 234.61 171.541 234.469Z" fill="black"/>
<path d="M159.371 249.14C159.65 249.834 160.195 250.398 160.893 250.716C161.349 250.857 163.929 250.069 165.434 249.447C166.939 248.825 167.042 248.153 165.434 248.178C163.826 248.203 161.899 248.178 161.899 248.178C161.822 248.115 161.763 248.034 161.726 247.942C161.69 247.851 161.679 247.752 161.693 247.655C161.744 247.332 160.136 247.655 160.471 248.36L160.669 248.684C160.669 248.684 160.17 249.09 159.895 249.057C159.62 249.024 159.319 249.024 159.371 249.14Z" fill="black"/>
<path d="M84.3385 170.312C84.0011 170.722 83.8062 171.223 83.7815 171.746C83.7568 172.268 83.9035 172.785 84.2009 173.223C84.7255 173.787 85.8608 173.696 86.4973 174.052C88.2174 175.13 90.6256 175.13 91.3996 174.608C92.1737 174.085 92.4231 173.538 89.9203 172.045L87.2369 170.453L84.3385 170.312Z" fill="#2992FA"/>
<path d="M84.39 168.985C84.3348 169.622 84.2459 170.256 84.1234 170.884C84.0988 170.999 84.1066 171.118 84.146 171.229C84.1853 171.34 84.2547 171.438 84.347 171.514C84.7197 171.878 85.1977 172.124 85.7182 172.22C86.2386 172.316 86.7771 172.258 87.2627 172.054C87.2627 172.054 88.0109 171.772 87.6669 170.834C87.4368 170.135 87.2615 169.42 87.1423 168.695L84.39 168.985Z" fill="white"/>
<path d="M71.1792 175.562C70.8405 175.97 70.644 176.472 70.6178 176.994C70.5915 177.517 70.7368 178.034 71.0329 178.473C71.5662 179.036 72.3918 178.572 72.7531 179.202C74.198 181.607 76.804 181.325 77.7071 181.234C79.066 181.093 79.1348 180.007 76.847 177.975C75.9427 177.189 75.0814 176.359 74.2668 175.487L71.1792 175.562Z" fill="#2992FA"/>
<path d="M62.2173 116.803C59.6371 122.916 59.0006 125.992 64.3244 131.914C69.6483 137.835 77.2943 143.649 78.2661 145.399C79.238 147.149 80.4421 150.972 83.7534 168.952C83.9598 170.055 87.4689 170.312 87.4603 168.263C87.4603 164.739 86.8238 144.545 85.8003 139.535C84.7769 134.526 74.0948 124.665 74.0948 124.665L62.2173 116.803Z" fill="url(#paint8_linear)"/>
<path d="M71.2221 174.235C71.1669 174.872 71.0779 175.506 70.9555 176.134C70.9309 176.249 70.9387 176.368 70.978 176.478C71.0173 176.589 71.0868 176.688 71.1791 176.764C71.5534 177.127 72.0324 177.374 72.5538 177.472C73.0753 177.569 73.6152 177.513 74.1033 177.311C74.2149 177.258 74.3142 177.183 74.3953 177.092C74.4764 177.001 74.5376 176.895 74.5753 176.78C74.6131 176.666 74.6265 176.545 74.6148 176.426C74.6032 176.306 74.5667 176.19 74.5075 176.084C74.2716 175.388 74.0933 174.676 73.9743 173.953L71.2221 174.235Z" fill="white"/>
<path d="M75.6858 113.113C78.9025 115.485 80.2184 116.43 80.2184 116.43L83.3576 114.771L78.8681 108.551L77.3716 107.374L75.3418 110.16L75.6858 113.113Z" fill="url(#paint9_linear)"/>
<path d="M54.5195 121.083C51.9393 127.195 51.3029 130.272 56.6267 136.193C61.9505 142.115 70.7662 146.394 71.7725 148.144C72.7788 149.894 71.1102 165.668 70.6028 173.994C70.534 175.114 74.3441 176.026 74.6279 173.994C74.9719 171.506 79.1605 148.824 78.137 143.806C77.1135 138.789 66.4315 128.945 66.4315 128.945L54.5195 121.083Z" fill="url(#paint10_linear)"/>
<path d="M74.4906 102.978L74.396 113.76C74.396 113.76 74.8174 112.632 75.6431 113.08C75.6431 113.08 75.2819 108.883 78.8254 108.51C78.8254 108.543 75.5915 103.592 74.4906 102.978Z" fill="#2992FA"/>
<path d="M52.5762 125.229C53.5395 130.562 60.3857 133.564 69.0895 128.887C77.7934 124.209 73.6823 122.426 73.5447 117.956C73.4071 113.486 72.4524 111.902 74.4048 105.317C76.3571 98.7322 64.428 102.29 59.388 106.345C54.348 110.401 51.6818 120.253 52.5762 125.229Z" fill="#2992FA"/>
<path d="M59.4138 106.32C54.3738 110.384 51.1399 122.028 52.0258 126.954C52.7912 131.184 58.2441 136.011 64.4021 134.634C64.2645 133.805 63.7141 128.829 63.6797 127.095C63.5077 119.83 67.4984 115.675 66.4491 106.843C66.4491 106.843 61.994 104.902 65.9245 103.144C69.855 101.386 71.6181 101.386 72.117 102.812C72.6158 104.239 70.5258 114.896 70.8183 122.658C70.9301 125.495 72.0912 129.451 72.203 130.836C77.5268 127.211 74.3961 121.887 74.2671 117.931C74.1295 113.461 74.8692 112.126 74.9896 105.242C75.11 98.1764 64.4538 102.265 59.4138 106.32Z" fill="#1F263A"/>
<path d="M68.5128 98.7405C67.6091 100.561 66.4861 102.273 65.1671 103.841C64.7887 104.513 66.5776 105.301 68.0053 105.408L68.9084 107.813L70.5253 104.197C70.5253 104.197 71.3854 103.841 71.2048 103.078C71.1246 102.393 71.3184 101.705 71.7466 101.154C72.0218 100.665 68.5128 98.7405 68.5128 98.7405Z" fill="url(#paint11_linear)"/>
<path d="M68.4355 98.0935C68.5216 100.631 70.6545 101.709 72.4177 102.099C74.1808 102.489 78.1457 97.1232 77.578 94.7513C77.0104 92.3794 73.1229 90.0572 70.9727 91.8071C68.8226 93.557 68.4355 98.0935 68.4355 98.0935Z" fill="url(#paint12_linear)"/>
<path d="M74.6541 118.147H74.5767L71.6955 117.434C71.6515 117.429 71.6092 117.415 71.5713 117.393C71.5334 117.37 71.5009 117.341 71.4759 117.306C71.4509 117.27 71.434 117.23 71.4265 117.188C71.4189 117.146 71.4207 117.103 71.4319 117.062C71.4431 117.02 71.4633 116.982 71.4912 116.949C71.5192 116.916 71.5541 116.889 71.5938 116.87C71.6334 116.851 71.6769 116.84 71.7211 116.839C71.7654 116.837 71.8094 116.845 71.8503 116.861L74.7315 117.583C74.8036 117.6 74.8667 117.642 74.9086 117.701C74.9506 117.76 74.9685 117.832 74.9589 117.902C74.9493 117.973 74.9129 118.038 74.8566 118.085C74.8004 118.132 74.7283 118.157 74.6541 118.155V118.147Z" fill="white"/>
<path d="M61.125 106.901C58.0029 107.73 55.8614 112.184 54.9325 116.405C54.0036 120.626 58.3728 119.598 59.8865 118.064C61.4002 116.53 65.3651 105.806 61.125 106.901Z" fill="#2992FA"/>
<path d="M74.8774 117.226C73.7593 116.986 73.6303 117.566 72.6671 118.885L63.0257 122.493C63.0257 122.493 61.4948 110.658 60.8325 108.867L56.2397 116.43C57.8567 123.131 59.6198 125.876 61.0045 127.211C62.114 128.265 70.8523 123.115 74.2668 121.041C74.2668 121.041 75.3591 121.257 77.1996 119.839C79.0402 118.42 76.1159 117.5 74.8774 117.226Z" fill="url(#paint13_linear)"/>
<path d="M68.0054 98.1682C68.3322 99.8849 66.5089 98.9146 66.096 99.9015C65.6832 100.888 68.401 101.162 69.4675 99.9015C70.0609 99.1965 70.577 99.4619 69.9147 98.475C69.2525 97.4881 70.7318 96.9822 71.351 97.6872C71.9703 98.3921 72.7099 97.6291 72.9938 97.09C73.2776 96.551 75.2901 97.8033 76.7609 98.0438C78.2316 98.2843 80.2011 97.795 79.9087 96.07C79.6163 94.3449 78.8078 95.2406 78.4896 94.6269C78.1714 94.0132 79.7281 93.98 78.825 93.0512C77.922 92.1223 76.9071 93.2253 76.6147 92.4707C76.3222 91.716 75.0063 91.5916 74.4817 90.812C73.957 90.0324 72.8562 91.094 72.5121 90.812C72.1681 90.53 70.5254 90.5715 69.6653 92.7692C68.8052 94.9669 68.8052 94.0464 68.2462 95.0996C67.6872 96.1529 68.0054 98.1682 68.0054 98.1682Z" fill="#1F263A"/>
<path d="M75.325 118.901L84.0375 111.977L79.0233 120.792L70.3452 128.157L75.325 118.901Z" fill="black"/>
<path d="M82.8332 114.091C85.1124 117.035 84.0803 118.379 83.4353 119.25C82.7902 120.121 76.3397 123.911 75.428 125.478C74.5164 127.046 72.2974 126.639 71.5405 126.241C71.1 125.913 70.7878 125.451 70.655 124.929C70.5222 124.408 70.5767 123.859 70.8095 123.372C71.4201 122.086 73.4929 123.372 73.4929 123.372L81.0787 117.21L82.8332 114.091Z" fill="url(#paint14_linear)"/>
<path d="M62.0022 115.194C60.5916 114.091 56.902 115.858 56.6009 117.857L55.6807 116.803L58.1491 110.044L60.54 107.979L61.7527 108.809L62.0022 115.194Z" fill="#2992FA"/>
<path d="M212.566 213.877C211.585 211.837 210.596 213.18 210.072 210.676C209.547 208.171 210.588 204.87 214.372 202.482C218.156 200.093 220.521 202.954 220.934 207.176C221.136 209.784 220.378 212.377 218.793 214.499L215.266 215.66L212.566 213.877Z" fill="white"/>
<path d="M79.5278 64.8199C80.1089 64.7024 80.7131 64.7538 81.2639 64.9674C81.8148 65.1811 82.2875 65.5475 82.6224 66.0202C82.9573 66.493 83.1392 67.0509 83.1452 67.6234C83.1512 68.1959 82.981 68.7573 82.6561 69.2365C82.3312 69.7157 81.8663 70.0912 81.32 70.3156C80.7738 70.5399 80.1708 70.603 79.5873 70.4969C79.0039 70.3908 78.4662 70.1202 78.0422 69.7193C77.6183 69.3185 77.3272 68.8054 77.2056 68.245C77.0428 67.4939 77.1959 66.7112 77.6314 66.0689C78.0668 65.4266 78.749 64.9773 79.5278 64.8199Z" fill="#2992FA"/>
<path d="M166.931 75.1541C166.734 75.6653 166.386 76.1091 165.929 76.4296C165.472 76.7502 164.927 76.9332 164.362 76.9555C163.797 76.9778 163.238 76.8385 162.755 76.5552C162.272 76.2718 161.887 75.857 161.649 75.363C161.41 74.8691 161.328 74.318 161.413 73.7793C161.499 73.2405 161.747 72.7381 162.128 72.3354C162.509 71.9327 163.005 71.6476 163.553 71.5161C164.102 71.3845 164.678 71.4125 165.21 71.5963C165.566 71.7204 165.893 71.9109 166.172 72.1571C166.451 72.4032 166.677 72.7001 166.837 73.0307C166.997 73.3612 167.087 73.719 167.103 74.0834C167.119 74.4478 167.061 74.8117 166.931 75.1541Z" fill="#1F263A"/>
<path d="M194.701 36.5877L203.568 31.3214C203.663 32.9801 204.429 33.6021 205.581 34.5475C202.411 35.957 199.425 37.7248 196.688 39.8138C196.132 39.4486 195.667 38.9706 195.323 38.4132C194.98 37.8558 194.768 37.2327 194.701 36.5877Z" fill="#2992FA"/>
<path d="M85.3787 50.8879C85.2535 51.1713 85.0439 51.4125 84.7766 51.5812C84.5092 51.7498 84.196 51.8383 83.8766 51.8355C83.5571 51.8327 83.2456 51.7387 82.9815 51.5653C82.7174 51.392 82.5125 51.1471 82.3926 50.8615C82.2727 50.576 82.2432 50.2626 82.3079 49.9609C82.3725 49.6592 82.5284 49.3827 82.7559 49.1664C82.9833 48.9501 83.2722 48.8036 83.5859 48.7454C83.8996 48.6872 84.2242 48.7199 84.5187 48.8394C84.715 48.9191 84.893 49.0354 85.0425 49.1816C85.1921 49.3278 85.3102 49.501 85.3901 49.6913C85.47 49.8817 85.5102 50.0854 85.5082 50.2907C85.5063 50.496 85.4623 50.699 85.3787 50.8879Z" fill="#1F263A"/>
<path d="M214.767 74.9967C214.804 75.3603 214.727 75.7261 214.547 76.0475C214.367 76.369 214.092 76.6316 213.757 76.8019C213.422 76.9721 213.042 77.0425 212.665 77.0038C212.288 76.9652 211.932 76.8194 211.642 76.585C211.351 76.3506 211.139 76.0381 211.034 75.6874C210.928 75.3366 210.932 74.9634 211.047 74.6153C211.162 74.2672 211.382 73.9598 211.678 73.7324C211.974 73.5049 212.334 73.3676 212.712 73.338C213.212 73.2987 213.708 73.4507 214.092 73.7611C214.477 74.0714 214.719 74.5153 214.767 74.9967Z" fill="white"/>
<path d="M152.533 56.9421L159.113 50.4899C159.577 51.9578 160.368 52.3144 161.598 52.9032C159.158 54.7951 156.959 56.9581 155.045 59.3471C154.469 59.1473 153.946 58.8285 153.512 58.413C153.079 57.9975 152.744 57.4954 152.533 56.9421Z" fill="#2992FA"/>
<path d="M50.6089 52.8705L56.1477 47.0652C56.6036 48.3341 57.3002 48.6243 58.3925 49.0971C56.3189 50.8184 54.4601 52.7666 52.8537 54.9024C52.3476 54.7436 51.8841 54.4792 51.4962 54.128C51.1082 53.7768 50.8052 53.3474 50.6089 52.8705Z" fill="black"/>
<path d="M184.82 58.186C182.091 58.7022 179.659 60.1806 178 62.3327C179.436 62.6313 179.926 64.1738 179.72 65.4593C181.554 63.4205 183.908 61.8771 186.549 60.9809C186.97 60.8565 186.119 59.5296 185.508 58.8246C185.336 58.6339 185.095 58.4182 184.82 58.186Z" fill="#FFD931"/>
<path d="M80.8865 38.1926C80.405 38.362 79.8821 38.3893 79.3845 38.271C78.8869 38.1527 78.4371 37.8942 78.0924 37.5284C77.7478 37.1627 77.5239 36.7062 77.4493 36.2173C77.3748 35.7283 77.4529 35.2291 77.6738 34.7831C77.8946 34.3372 78.2482 33.9647 78.6895 33.7133C79.1307 33.4619 79.6396 33.3429 80.1513 33.3715C80.6629 33.4 81.1542 33.5749 81.5623 33.8737C81.9705 34.1726 82.2772 34.5819 82.4432 35.0494C82.662 35.6656 82.6215 36.3398 82.3304 36.9275C82.0393 37.5152 81.5209 37.9694 80.8865 38.1926Z" fill="#2992FA"/>
<path d="M13.437 52.19L3.79563 58.269C3.64082 56.3947 2.78075 55.781 1.46484 54.7443C4.91238 53.0856 8.14795 51.0455 11.1062 48.6653C11.7366 49.0546 12.2716 49.5715 12.6741 50.1802C13.0765 50.7888 13.3369 51.4746 13.437 52.19Z" fill="#2992FA"/>
<path d="M106.389 46.8166C108.492 46.2816 110.312 45.0064 111.489 43.2421C110.354 43.0763 109.889 41.8986 109.958 40.8868C108.633 42.5689 106.875 43.887 104.858 44.7101C104.54 44.8262 105.271 45.8131 105.787 46.3687C105.978 46.5294 106.179 46.6789 106.389 46.8166Z" fill="#2992FA"/>
<path d="M212.437 49.095L208.609 59.8763C207.251 58.4499 206.15 58.4665 204.421 58.4416C206.124 55.0025 207.409 51.3846 208.248 47.6603C210.14 47.5359 211.061 48.0584 212.437 49.095Z" fill="#2992FA"/>
<path d="M27.2658 34.5186C27.8676 34.7326 28.3901 35.1138 28.7672 35.6141C29.1443 36.1145 29.3591 36.7114 29.3843 37.3295C29.4095 37.9475 29.244 38.5588 28.9088 39.0862C28.5736 39.6135 28.0837 40.0331 27.5012 40.2919C26.9186 40.5508 26.2695 40.6372 25.636 40.5402C25.0025 40.4432 24.4131 40.1673 23.9422 39.7472C23.4714 39.3272 23.1404 38.7819 22.991 38.1804C22.8416 37.5789 22.8806 36.9482 23.1031 36.3681C23.4011 35.5908 24.0069 34.9594 24.7875 34.6126C25.568 34.2658 26.4594 34.232 27.2658 34.5186Z" fill="black"/>
<path d="M147.071 73.2301L139.434 70.6591C140.449 69.7718 140.449 69.0005 140.466 67.9058C142.9 69.0491 145.463 69.9173 148.104 70.4933C148.145 70.9942 148.075 71.4979 147.897 71.9701C147.719 72.4424 147.437 72.8721 147.071 73.2301Z" fill="#2992FA"/>
<path d="M227.101 37.7341C230.073 39.976 233.734 41.2013 237.508 41.2173C236.699 39.683 238.093 38.1737 239.735 37.4439C235.948 37.1717 232.276 36.0652 229.002 34.2095C228.52 33.9109 227.66 35.6027 227.325 36.6974C227.187 36.9545 227.187 37.3277 227.101 37.7341Z" fill="#1F263A"/>
<path d="M202.344 73.453C202.396 71.3465 200.194 70.4757 199.136 69.0161C198.328 70.4509 196.917 71.869 195.266 72.1012C196.883 72.9306 197.382 74.8048 197.141 76.5381C199.996 75.4186 201.252 74.8463 202.344 73.453Z" fill="#2992FA"/>
<path d="M100.903 80.6195C99.4669 80.6195 98.8649 81.9713 97.8672 82.6348C98.3834 82.8764 98.8382 83.2245 99.1994 83.6545C99.5606 84.0844 99.8193 84.5857 99.9572 85.1228C100.279 84.6549 100.741 84.2925 101.282 84.0837C101.823 83.8748 102.417 83.8294 102.985 83.9534C102.236 82.104 101.849 81.3161 100.903 80.6195Z" fill="#2992FA"/>
<path d="M130.219 60.5388C131.251 59.6099 130.666 58.2415 130.89 57.1136C130.36 57.2906 129.797 57.3534 129.24 57.2975C128.683 57.2416 128.145 57.0684 127.665 56.7902C127.775 57.3316 127.712 57.8925 127.485 58.3989C127.257 58.9052 126.876 59.3333 126.392 59.6265C128.387 60.4641 129.144 60.6797 130.219 60.5388Z" fill="#1F263A"/>
<path d="M142.206 44.3872C140.374 44.155 139.411 45.8634 138.043 46.5933C138.672 46.9604 139.209 47.4572 139.615 48.048C140.02 48.6387 140.286 49.3088 140.391 50.0101C140.868 49.4501 141.509 49.0425 142.231 48.8411C142.953 48.6398 143.721 48.6541 144.434 48.8822C143.651 46.2366 143.238 45.3161 142.206 44.3872Z" fill="#FADF5A"/>
<path d="M105.442 67.7494C107.076 68.1309 108.108 66.6795 109.424 66.1488C108.893 65.7554 108.459 65.2544 108.151 64.6811C107.843 64.1078 107.67 63.4764 107.644 62.8314C107.158 63.2926 106.539 63.6006 105.868 63.7146C105.196 63.8287 104.505 63.7434 103.885 63.47C104.289 65.7424 104.53 66.7293 105.442 67.7494Z" fill="#1F263A"/>
<path d="M173.57 47.5125C173.092 47.8114 172.532 47.9665 171.961 47.9582C171.391 47.9499 170.836 47.7785 170.367 47.4658C169.897 47.1531 169.535 46.7131 169.325 46.2016C169.116 45.6901 169.068 45.1301 169.189 44.5925C169.309 44.0549 169.593 43.564 170.003 43.1819C170.413 42.7998 170.932 42.5437 171.493 42.4461C172.055 42.3485 172.634 42.4137 173.156 42.6336C173.679 42.8534 174.123 43.218 174.431 43.681C174.635 43.987 174.775 44.3288 174.843 44.6871C174.91 45.0453 174.904 45.4129 174.824 45.7687C174.744 46.1246 174.593 46.4618 174.377 46.761C174.162 47.0602 173.888 47.3156 173.57 47.5125Z" fill="#1F263A"/>
<path d="M42.9659 40.5953C43.1164 40.2914 43.3567 40.0372 43.6566 39.8646C43.9564 39.6919 44.3026 39.6086 44.6514 39.6251C45.0002 39.6416 45.3362 39.7571 45.6172 39.9571C45.8982 40.1572 46.1115 40.4329 46.2305 40.7495C46.3495 41.0661 46.3687 41.4096 46.2859 41.7368C46.203 42.0639 46.0217 42.3602 45.7648 42.5883C45.5079 42.8164 45.1867 42.9662 44.8418 43.0189C44.4968 43.0715 44.1434 43.0247 43.826 42.8843C43.6116 42.7907 43.4189 42.6567 43.2591 42.4902C43.0993 42.3237 42.9756 42.128 42.8955 41.9147C42.8153 41.7013 42.7803 41.4747 42.7924 41.2481C42.8045 41.0215 42.8635 40.7996 42.9659 40.5953Z" fill="#FADF5A"/>
<path d="M161.92 32.8594C162.066 33.2372 162.093 33.6484 161.998 34.0411C161.902 34.4338 161.688 34.7903 161.382 35.0656C161.077 35.341 160.693 35.5228 160.28 35.588C159.867 35.6532 159.444 35.599 159.063 35.4322C158.682 35.2654 158.361 34.9934 158.14 34.6507C157.92 34.308 157.81 33.9099 157.823 33.5068C157.837 33.1037 157.975 32.7135 158.219 32.3857C158.462 32.058 158.802 31.8072 159.193 31.6652C159.453 31.5708 159.73 31.5267 160.008 31.5357C160.286 31.5446 160.56 31.6063 160.813 31.7172C161.066 31.8281 161.294 31.9861 161.484 32.1821C161.674 32.3781 161.822 32.6083 161.92 32.8594Z" fill="#1F263A"/>
<path d="M125.602 40.9499C127.959 38.8389 129.413 35.955 129.679 32.8639C128.079 33.4113 126.625 32.1838 125.98 30.8237C125.542 33.4942 124.621 35.8993 122.084 39.2249C121.757 39.5981 123.426 40.3942 124.475 40.7343C124.819 40.8172 125.189 40.8835 125.602 40.9499Z" fill="#FFD931"/>
<path d="M129.397 91.6746C131.058 91.1604 132.46 90.0659 133.328 88.606C132.91 88.5163 132.542 88.2797 132.295 87.9423C132.049 87.6049 131.941 87.191 131.994 86.7815C131.008 88.1794 129.659 89.3032 128.081 90.0408C127.832 90.1486 128.46 90.9116 128.89 91.3096C129.01 91.434 129.208 91.5502 129.397 91.6746Z" fill="#FFD931"/>
<path d="M235.755 68.0685C238.112 65.9576 239.566 63.0737 239.832 59.9825C238.232 60.5299 236.779 59.3025 236.134 57.9424C235.695 60.6128 234.775 63.0179 232.238 66.3435C231.911 66.7167 233.579 67.5129 234.628 67.8529C234.973 67.9359 235.342 68.0022 235.755 68.0685Z" fill="#FFD931"/>
<path d="M31.658 70.2692C34.0149 68.1582 35.4688 65.2744 35.7348 62.1832C34.135 62.7306 32.6815 61.5032 32.0365 60.1431C31.5978 62.8135 30.6776 65.2186 28.1403 68.5442C27.8135 68.9174 29.4821 69.7136 30.5313 70.0536C30.8754 70.1365 31.2452 70.2029 31.658 70.2692Z" fill="#FFD931"/>
</g>
<defs>
<linearGradient id="paint0_linear" x1="157.057" y1="188.524" x2="132.306" y2="216.036" gradientUnits="userSpaceOnUse">
<stop stop-color="#EEEEF3"/>
<stop offset="1" stop-color="#C8C5DB"/>
</linearGradient>
<linearGradient id="paint1_linear" x1="3618.29" y1="3312.61" x2="4691.08" y2="4438.92" gradientUnits="userSpaceOnUse">
<stop stop-color="#EEEEF3"/>
<stop offset="1" stop-color="#C8C5DB"/>
</linearGradient>
<linearGradient id="paint2_linear" x1="174.344" y1="125.627" x2="142.919" y2="142.107" gradientUnits="userSpaceOnUse">
<stop stop-color="#00F4AA"/>
<stop offset="1" stop-color="#00AAFF"/>
</linearGradient>
<linearGradient id="paint3_linear" x1="1635.71" y1="10852.6" x2="1718.89" y2="10852.6" gradientUnits="userSpaceOnUse">
<stop stop-color="#EEEEF3"/>
<stop offset="1" stop-color="#C8C5DB"/>
</linearGradient>
<linearGradient id="paint4_linear" x1="2056.12" y1="11180.4" x2="2184.2" y2="11180.4" gradientUnits="userSpaceOnUse">
<stop stop-color="#EEEEF3"/>
<stop offset="1" stop-color="#C8C5DB"/>
</linearGradient>
<linearGradient id="paint5_linear" x1="2442.54" y1="1624.77" x2="2644.51" y2="1624.77" gradientUnits="userSpaceOnUse">
<stop stop-color="#EEEEF3"/>
<stop offset="1" stop-color="#C8C5DB"/>
</linearGradient>
<linearGradient id="paint6_linear" x1="733.18" y1="1356.45" x2="754.584" y2="1356.45" gradientUnits="userSpaceOnUse">
<stop stop-color="#EEEEF3"/>
<stop offset="1" stop-color="#C8C5DB"/>
</linearGradient>
<linearGradient id="paint7_linear" x1="282.766" y1="354.775" x2="284.168" y2="354.775" gradientUnits="userSpaceOnUse">
<stop stop-color="#EEEEF3"/>
<stop offset="1" stop-color="#C8C5DB"/>
</linearGradient>
<linearGradient id="paint8_linear" x1="1965.02" y1="9273.24" x2="2825.25" y2="9273.24" gradientUnits="userSpaceOnUse">
<stop stop-color="#EEEEF3"/>
<stop offset="1" stop-color="#C8C5DB"/>
</linearGradient>
<linearGradient id="paint9_linear" x1="777.128" y1="1329.16" x2="851.836" y2="1329.16" gradientUnits="userSpaceOnUse">
<stop stop-color="#EEEEF3"/>
<stop offset="1" stop-color="#C8C5DB"/>
</linearGradient>
<linearGradient id="paint10_linear" x1="1624.52" y1="9786.39" x2="2393.64" y2="9786.39" gradientUnits="userSpaceOnUse">
<stop stop-color="#EEEEF3"/>
<stop offset="1" stop-color="#C8C5DB"/>
</linearGradient>
<linearGradient id="paint11_linear" x1="568.306" y1="1228.41" x2="619.748" y2="1228.41" gradientUnits="userSpaceOnUse">
<stop stop-color="#EEEEF3"/>
<stop offset="1" stop-color="#C8C5DB"/>
</linearGradient>
<linearGradient id="paint12_linear" x1="800.289" y1="1364.42" x2="898.611" y2="1364.42" gradientUnits="userSpaceOnUse">
<stop stop-color="#EEEEF3"/>
<stop offset="1" stop-color="#C8C5DB"/>
</linearGradient>
<linearGradient id="paint13_linear" x1="1465.32" y1="2740.61" x2="2005.42" y2="2740.61" gradientUnits="userSpaceOnUse">
<stop stop-color="#EEEEF3"/>
<stop offset="1" stop-color="#C8C5DB"/>
</linearGradient>
<linearGradient id="paint14_linear" x1="1191.19" y1="1929.77" x2="1407.72" y2="1929.77" gradientUnits="userSpaceOnUse">
<stop stop-color="#EEEEF3"/>
<stop offset="1" stop-color="#C8C5DB"/>
</linearGradient>
<clipPath id="clip0">
<rect width="252" height="311" fill="white"/>
</clipPath>
</defs>
</svg>
