<svg width="18" height="19" viewBox="0 0 18 19" fill="none" xmlns="http://www.w3.org/2000/svg">
<g opacity="0.5">
<path d="M16.9443 16.2659L12.9889 12.2994C14.0499 11.0762 14.6923 9.48018 14.6923 7.7358C14.6923 3.89599 11.5777 0.776367 7.75216 0.776367C3.92299 0.776367 0.812012 3.8996 0.812012 7.7358C0.812012 11.572 3.9266 14.6952 7.75216 14.6952C9.49171 14.6952 11.0833 14.051 12.3031 12.987L16.2586 16.9535C16.3525 17.0476 16.4788 17.0983 16.6015 17.0983C16.7242 17.0983 16.8505 17.0512 16.9443 16.9535C17.132 16.7653 17.132 16.4541 16.9443 16.2659ZM1.78284 7.7358C1.78284 4.43522 4.46073 1.75351 7.74855 1.75351C11.04 1.75351 13.7143 4.43884 13.7143 7.7358C13.7143 11.0327 11.04 13.7217 7.74855 13.7217C4.46073 13.7217 1.78284 11.0364 1.78284 7.7358Z" fill="black"/>
</g>
</svg>
