<svg width="30" height="25" viewBox="0 0 30 25" fill="none" xmlns="http://www.w3.org/2000/svg">
<path d="M30 11.2011C30 9.14197 28.3255 7.46742 26.2663 7.46742C25.4431 7.46742 24.6609 7.73625 24.0224 8.22349C21.939 6.77669 19.2097 5.91422 16.3068 5.6958L17.8731 2.02187L22.43 3.08597C22.5756 4.49542 23.7554 5.60059 25.2022 5.60059C26.7461 5.60059 28.0025 4.34421 28.0025 2.80034C28.0025 1.25647 26.7461 9.16285e-05 25.2022 9.16285e-05C24.224 9.16285e-05 23.3634 0.506003 22.8631 1.26954L17.537 0.0243605C17.0853 -0.0783153 16.6428 0.151305 16.4636 0.567609L14.2981 5.64539C11.1637 5.75367 8.17673 6.63668 5.92159 8.17495C5.30741 7.71944 4.54574 7.46742 3.73367 7.46742C1.67455 7.46742 0 9.14197 0 11.2011C0 12.5657 0.744866 13.7997 1.88737 14.4326C1.87243 14.5969 1.86683 14.7649 1.86683 14.9348C1.86683 20.0816 7.72869 24.2689 14.9347 24.2689C22.1388 24.2689 28.0025 20.0816 28.0025 14.9348C28.0025 14.7891 27.9969 14.6454 27.9876 14.5016C29.2047 13.8819 30 12.618 30 11.2011ZM25.2022 1.86692C25.7156 1.86692 26.1357 2.2851 26.1357 2.80034C26.1357 3.31559 25.7156 3.73376 25.2022 3.73376C24.6889 3.73376 24.2688 3.31559 24.2688 2.80034C24.2688 2.2851 24.6889 1.86692 25.2022 1.86692ZM8.40075 14.0013C8.40075 12.9727 9.23895 12.1345 10.2676 12.1345C11.2962 12.1345 12.1344 12.9727 12.1344 14.0013C12.1344 15.0318 11.2962 15.8682 10.2676 15.8682C9.23895 15.8682 8.40075 15.0318 8.40075 14.0013ZM19.2452 20.1936C17.9571 21.1252 16.4449 21.5919 14.9347 21.5919C13.4244 21.5919 11.9123 21.1252 10.6241 20.1936C10.206 19.8912 10.1126 19.3069 10.4151 18.8906C10.7175 18.4743 11.3018 18.3809 11.7181 18.6815C13.6428 20.0723 16.2265 20.076 18.1512 18.6815C18.5675 18.3809 19.15 18.4705 19.4543 18.8906C19.7567 19.3087 19.6615 19.8912 19.2452 20.1936ZM19.6017 15.8682C18.5713 15.8682 17.7349 15.0318 17.7349 14.0013C17.7349 12.9727 18.5713 12.1345 19.6017 12.1345C20.6322 12.1345 21.4686 12.9727 21.4686 14.0013C21.4686 15.0318 20.6322 15.8682 19.6017 15.8682Z" fill="#1F263A"/>
</svg>
