<svg width="32" height="27" viewBox="0 0 32 27" fill="none" xmlns="http://www.w3.org/2000/svg">
<path d="M0.565097 12.9463L7.93855 15.6133L10.7927 24.5076C10.9749 25.0775 11.6943 25.2879 12.1713 24.9099L16.2812 21.6629C16.712 21.3227 17.3255 21.3057 17.776 21.6226L25.1891 26.8385C25.6995 27.1978 26.4224 26.9269 26.5505 26.3293L31.9812 1.01495C32.1208 0.36244 31.4588 -0.182701 30.8172 0.0580189L0.556828 11.3705C-0.190104 11.6496 -0.183836 12.6743 0.565097 12.9463ZM10.3328 14.1935L24.7432 5.59237C25.0021 5.43848 25.2688 5.77766 25.0464 5.97754L13.1531 16.6909C12.7355 17.068 12.4656 17.5727 12.3891 18.1202L11.9844 21.0296C11.9307 21.4182 11.3677 21.4566 11.2568 21.081L9.69895 15.7753C9.52028 15.1701 9.78028 14.5241 10.3328 14.1935Z" fill="#1F263A"/>
</svg>
