<svg width="30" height="25" viewBox="0 0 30 25" fill="none" xmlns="http://www.w3.org/2000/svg">
<path d="M30 2.95996C28.8972 3.46127 27.7095 3.80131 26.4655 3.95306C27.7364 3.1711 28.7113 1.93501 29.1731 0.461843C27.9831 1.1837 26.6652 1.70975 25.2639 1.9927C24.1411 0.765431 22.5408 0 20.7701 0C17.3699 0 14.6158 2.82705 14.6158 6.31055C14.6158 6.80474 14.6691 7.28782 14.7747 7.74966C9.66 7.48554 5.12378 4.9733 2.08901 1.15375C1.55773 2.08686 1.2553 3.1712 1.2553 4.32726C1.2553 6.51768 2.34201 8.45039 3.99165 9.58121C2.98299 9.54885 2.03509 9.2641 1.20363 8.79043C1.20363 8.81808 1.20363 8.84342 1.20363 8.87106C1.20363 11.9275 3.32605 14.4786 6.14103 15.0581C5.62576 15.2028 5.08129 15.2811 4.52069 15.2811C4.12421 15.2811 3.73866 15.2417 3.3617 15.1681C4.14667 17.6756 6.41933 19.5001 9.11328 19.5506C7.00639 21.2445 4.35268 22.2512 1.46825 22.2512C0.970171 22.2512 0.479616 22.2235 0 22.1641C2.72316 23.9545 5.95759 25 9.43348 25C20.7547 25 26.9475 15.3817 26.9475 7.04202C26.9475 6.76838 26.9406 6.49725 26.9297 6.22601C28.1329 5.33628 29.1755 4.22429 30 2.95996Z" fill="#1F263A"/>
</svg>
