<svg width="633" height="318" viewBox="0 0 633 318" fill="none" xmlns="http://www.w3.org/2000/svg">
<g clip-path="url(#clip0)">
<path d="M187.018 186.974C221.278 152.727 266.604 133.543 314.936 132.739L314.936 132.669C364.456 132.669 411.005 151.941 446.017 186.939C480.278 221.185 499.471 266.491 500.275 314.803L633 314.803C632.598 273.026 624.19 232.472 607.986 194.19C591.975 156.309 569.041 122.308 539.85 93.1286C510.658 63.9494 476.642 41.0255 438.763 25.0207C399.503 8.42175 357.831 -1.2028e-05 314.918 -1.39038e-05L314.918 0.0524037C273.124 0.45427 232.553 8.85855 194.254 25.0556C156.375 41.0779 122.359 63.9844 93.1679 93.1635C63.9765 122.343 41.0428 156.344 25.0312 194.207C8.42528 233.45 -1.20252e-05 275.105 -1.39002e-05 318L132.707 318C132.707 268.5 152.005 221.971 187.018 186.974Z" fill="white"/>
</g>
<defs>
<clipPath id="clip0">
<rect width="318" height="633" fill="white" transform="translate(633) rotate(90)"/>
</clipPath>
</defs>
</svg>
