<svg width="221" height="41" viewBox="0 0 221 41" fill="none" xmlns="http://www.w3.org/2000/svg">
<path d="M30.7507 7.51598C27.7133 5.05452 23.9655 3.6922 20.176 3.6922C15.9649 3.6922 11.9515 5.25319 8.89079 8.10941C5.83005 10.9656 3.98996 14.8359 3.74791 19.0105L3.72449 19.4492H5.65307L5.69731 19.0544C6.22826 11.5384 12.5918 5.66859 20.1734 5.66859C23.6089 5.66859 26.8024 6.78837 29.3973 8.9428L29.5534 9.07438L30.9276 7.71207L30.7507 7.51598Z" fill="#1F263A"/>
<path d="M28.822 26.2194C26.8049 28.9441 23.5672 30.5928 20.1759 30.5928C14.3017 30.5928 9.51274 25.8453 9.51274 20.0219C9.51274 14.2424 14.3017 9.51558 20.1759 9.51558C23.5906 9.51558 26.8257 11.1411 28.822 13.8889L28.9781 14.0876L30.3758 12.7021L30.2639 12.5473C27.8694 9.42528 24.1007 7.55725 20.1759 7.55725C13.2137 7.55725 7.53992 13.1407 7.53992 19.9961C7.53992 26.898 13.2163 32.5227 20.1759 32.5227C24.1007 32.5227 27.8694 30.6547 30.2639 27.5327L30.3758 27.3779L28.9781 25.9924L28.822 26.2194Z" fill="#1F263A"/>
<path d="M32.9889 9.82519C32.6791 9.45107 32.3668 9.0563 31.992 8.68218L31.8359 8.52737L30.4617 9.88969L30.6178 10.0445C30.9952 10.4186 31.3049 10.7927 31.5938 11.1643L31.75 11.363L33.1242 10.0006L32.9889 9.82519Z" fill="#1F263A"/>
<path d="M29.4648 31.034L29.3087 31.1656C26.693 33.2968 23.5229 34.4398 20.0848 34.4398C12.5032 34.4398 6.13968 28.5493 5.60873 21.054L5.58531 20.5715H3.6333L3.65672 21.0772C3.9222 25.2519 5.74147 29.1221 8.79961 31.9783C11.8604 34.8139 15.8711 36.3955 20.0848 36.3955C23.942 36.3955 27.7106 35.0332 30.6595 32.5718L30.8364 32.417L29.4648 31.034Z" fill="#1F263A"/>
<path d="M31.7266 28.7248L31.5704 28.9234C31.2815 29.2976 30.9718 29.6717 30.5944 30.0432L30.4382 30.198L31.8124 31.5603L31.9686 31.4055C32.3668 31.0108 32.6791 30.6367 32.9654 30.2625L33.0982 30.1077L31.7266 28.7248Z" fill="#1F263A"/>
<path d="M34.1653 31.4958C30.774 35.6705 25.6754 38.0675 20.1759 38.0675C10.1322 38.0675 1.97543 29.9787 1.97543 20.0245C1.97543 10.0703 10.1322 1.97897 20.1759 1.97897C25.6077 1.97897 30.7063 4.37335 34.1653 8.5506L34.3215 8.74927L35.6957 7.38696L35.5629 7.23215C31.7474 2.61627 26.1152 0 20.1759 0C9.04429 0 0 8.96601 0 20.0013C0 31.0366 9.04429 40.0026 20.1759 40.0026C26.1386 40.0026 31.75 37.3863 35.5838 32.8375L35.7165 32.6827L34.3423 31.3204L34.1653 31.4958Z" fill="#1F263A"/>
<path d="M51.214 19.6272H51.4352V19.2737C51.4352 18.9667 51.4586 18.6364 51.4794 18.3294C51.5237 17.9991 51.5913 17.6688 51.6798 17.3618C51.7683 17.0548 51.8802 16.7684 52.013 16.482C52.1457 16.2188 52.3227 15.9763 52.5231 15.7776C52.7235 15.5789 52.9656 15.4267 53.2336 15.3158C53.4991 15.2048 53.8323 15.1403 54.1862 15.1403C54.5844 15.1403 54.941 15.2074 55.2065 15.339C55.4954 15.4706 55.7374 15.646 55.9378 15.8653C56.1382 16.1079 56.2918 16.371 56.4245 16.6781C56.5572 17.0083 56.6457 17.3386 56.69 17.7101L56.7134 17.9088H58.7981L58.7747 17.6663C58.7071 17.029 58.5535 16.4562 58.3088 15.9298C58.0876 15.4035 57.7779 14.9416 57.3771 14.5675C56.9789 14.1728 56.513 13.8864 55.9795 13.6877C55.4485 13.4684 54.8265 13.3806 54.1628 13.3806C53.6084 13.3806 53.0775 13.4684 52.6324 13.6232C52.19 13.778 51.7683 13.9973 51.4118 14.2837C51.0578 14.5701 50.7455 14.9004 50.48 15.2719C50.2354 15.646 50.0141 16.0408 49.8371 16.482C49.681 16.9206 49.5483 17.3825 49.4598 17.8443C49.3713 18.3268 49.3478 18.8119 49.327 19.2943V19.6246L51.214 19.6272Z" fill="#1F263A"/>
<path d="M56.7122 22.5273L56.6888 22.7259C56.6445 23.1001 56.5561 23.451 56.4233 23.758C56.3114 24.065 56.1344 24.3282 55.9366 24.5501C55.7362 24.7694 55.4942 24.9449 55.2053 25.0558C54.9164 25.1874 54.5624 25.2313 54.1642 25.2313C53.7868 25.2313 53.4771 25.1642 53.2116 25.0558C52.9462 24.9449 52.7015 24.7694 52.5011 24.594C52.3007 24.3953 52.1237 24.1553 51.991 23.8896C51.8582 23.6264 51.7463 23.3194 51.6578 23.0098C51.5693 22.7027 51.5017 22.3725 51.4574 22.0422C51.4132 21.7119 51.4132 21.3817 51.4132 21.0746V20.7444H49.3076V21.0746C49.3076 21.5571 49.3519 22.0422 49.4404 22.5247C49.5288 23.0072 49.6616 23.469 49.8177 23.887C49.9947 24.3256 50.1951 24.723 50.4606 25.0971C50.7261 25.4712 51.0358 25.8015 51.3924 26.0853C51.7463 26.3717 52.168 26.591 52.613 26.7458C53.0789 26.9006 53.589 26.9883 54.1434 26.9883C54.7862 26.9883 55.3849 26.8774 55.9158 26.6813C56.4467 26.462 56.9126 26.1756 57.3134 25.8015C57.7116 25.4273 58.024 24.9655 58.266 24.4598C58.5107 23.9541 58.6642 23.3607 58.7527 22.7672L58.7761 22.5247L56.7122 22.5273Z" fill="#1F263A"/>
<path d="M70.1238 22.615H67.8179V26.9444H70.1238V22.615Z" fill="#1F263A"/>
<path d="M74.1137 21.1211C74.4026 20.9895 74.6681 20.814 74.9335 20.6386C75.2432 20.4193 75.5087 20.1329 75.7534 19.8465C75.9746 19.5394 76.1516 19.2092 76.2843 18.8351C76.417 18.4609 76.4847 18.0662 76.4847 17.625C76.4847 16.9438 76.352 16.3504 76.1073 15.8447C75.8627 15.339 75.5321 14.9003 75.1105 14.5701C74.6889 14.2398 74.2022 13.9766 73.6478 13.8218C73.0934 13.667 72.4948 13.5793 71.8754 13.5587H67.8621V21.6035H72.1643L74.7149 26.8335H76.7996H77.0209L74.1137 21.1211ZM74.1813 18.5487C74.0486 18.8118 73.8716 19.0311 73.6504 19.2298C73.4292 19.4053 73.1637 19.5601 72.8748 19.6684C72.5651 19.7562 72.2528 19.8232 71.8988 19.8232H69.926V15.3415H71.8546C72.2319 15.3415 72.5651 15.4086 72.8748 15.4963C73.1845 15.5841 73.45 15.7389 73.6738 15.935C73.8951 16.1104 74.0512 16.353 74.184 16.6393C74.3167 16.9257 74.3609 17.256 74.3609 17.6275C74.3583 17.9552 74.2933 18.2855 74.1813 18.5487Z" fill="#1F263A"/>
<path d="M92.1164 22.0448L96.351 13.5612H93.98L91.1847 19.6917L88.3712 13.5612H85.9976L90.2555 22.0448H92.1164Z" fill="#1F263A"/>
<path d="M90.1878 26.8361H92.1607L92.1841 23.1646H90.167L90.1878 26.8361Z" fill="#1F263A"/>
<path d="M133.796 13.4942H123.643V15.4293H133.796V13.4942Z" fill="#1F263A"/>
<path d="M127.632 26.88H129.806V16.4613H127.632V26.88Z" fill="#1F263A"/>
<path d="M162.818 22.7259H160.733V26.8361H162.818V22.7259Z" fill="#1F263A"/>
<path d="M167.01 21.1211C167.299 20.9895 167.564 20.814 167.83 20.6386C168.14 20.4193 168.405 20.1329 168.65 19.8465C168.871 19.5394 169.048 19.2092 169.181 18.8351C169.313 18.4609 169.381 18.0662 169.381 17.625C169.381 16.9438 169.248 16.3504 169.004 15.8447C168.759 15.339 168.429 14.9003 168.007 14.5701C167.585 14.2398 167.099 13.9766 166.544 13.8218C165.99 13.667 165.391 13.5793 164.772 13.5587H160.758V21.6035H165.061L167.611 26.8335H169.696H169.917L167.01 21.1211ZM167.075 18.5487C166.942 18.8118 166.765 19.0311 166.544 19.2298C166.323 19.4053 166.057 19.5601 165.769 19.6684C165.459 19.7562 165.147 19.8232 164.793 19.8232H162.82V15.3415H164.748C165.126 15.3415 165.459 15.4086 165.769 15.4963C166.078 15.5841 166.344 15.7389 166.568 15.935C166.789 16.1104 166.945 16.353 167.078 16.6393C167.21 16.9025 167.255 17.256 167.255 17.6275C167.252 17.9784 167.187 18.2855 167.075 18.5487Z" fill="#1F263A"/>
<path d="M178.869 13.4942V15.4731H181.906V26.88H184.144V13.4942H178.869Z" fill="#1F263A"/>
<path d="M202.215 13.5612H200.174L200.151 22.4628C200.127 22.8137 200.083 23.1671 199.974 23.4948C199.862 23.8251 199.708 24.1115 199.508 24.3746C199.307 24.6172 199.065 24.8133 198.777 24.9681C198.488 25.0997 198.155 25.1874 197.756 25.1874C197.379 25.1874 197.025 25.1203 196.736 24.9681C196.447 24.8133 196.205 24.6172 196.005 24.3746C195.804 24.1321 195.651 23.8251 195.539 23.518C195.427 23.1878 195.383 22.8369 195.362 22.486V20.7702H193.301V22.4834C193.301 23.1 193.412 23.6935 193.634 24.2637C193.855 24.8133 194.165 25.2958 194.542 25.7137C194.919 26.1317 195.406 26.4388 195.94 26.6813C196.471 26.9238 197.093 27.0322 197.735 27.0322C198.378 27.0322 198.977 26.9212 199.531 26.6813C200.062 26.4388 200.552 26.1111 200.929 25.7137C201.327 25.2958 201.639 24.8133 201.837 24.2637C202.059 23.7141 202.17 23.1207 202.191 22.5066L202.215 13.5612Z" fill="#1F263A"/>
<path d="M195.363 13.5612H193.369L193.346 19.6272H195.386L195.363 13.5612Z" fill="#1F263A"/>
<path d="M217.956 13.5612L215.848 19.5162L213.875 13.5612H211.459V26.8361H213.521V21.4952L213.409 17.8236L215.184 23.2523H216.446L218.419 17.5605L218.375 19.6272H220.371V13.5612H217.956Z" fill="#1F263A"/>
<path d="M218.331 21.4952V26.8361H220.371V20.7702H218.354L218.331 21.4952Z" fill="#1F263A"/>
<path d="M114.132 15.8911C113.888 15.3854 113.557 14.9674 113.156 14.6165C112.735 14.2863 112.269 14.0231 111.715 13.8476C111.184 13.6722 110.606 13.5845 110.007 13.5612H105.596V18.7912H107.68V15.3415H110.007C110.361 15.3415 110.694 15.4086 110.983 15.517C111.272 15.6279 111.538 15.7802 111.738 15.9788C111.959 16.1775 112.115 16.4175 112.225 16.7039C112.357 16.9903 112.402 17.3205 112.402 17.6714C112.402 18.0223 112.334 18.3526 112.225 18.6158C112.113 18.8789 111.936 19.1215 111.738 19.2969C111.517 19.4956 111.272 19.6478 110.983 19.7355C110.694 19.8465 110.361 19.8903 110.007 19.8903H105.596V26.8129H107.68V21.6706H110.007C110.606 21.6706 111.181 21.5829 111.715 21.3843C112.269 21.2088 112.735 20.9456 113.156 20.5921C113.578 20.2412 113.911 19.8233 114.132 19.3382C114.377 18.8325 114.51 18.2623 114.51 17.6018C114.486 16.9903 114.375 16.3968 114.132 15.8911Z" fill="#1F263A"/>
<path d="M150.625 20.9018V19.0776H145.214V15.3854H151.444V13.5612H143.131V20.9018H144.992H150.625Z" fill="#1F263A"/>
<path d="M145.214 25.0119V22.0215H143.131V26.8361H151.509V25.0119H145.214Z" fill="#1F263A"/>
</svg>
